<svg width="21" height="22" viewBox="0 0 21 22" fill="none" xmlns="http://www.w3.org/2000/svg">
<path d="M12.4008 18.6065C12.8448 18.1986 12.8004 17.5867 12.4008 17.1788L7.02843 12.4877H19.8155C20.3927 12.4877 20.8811 12.0798 20.8811 11.5087V10.2033C20.8811 9.67303 20.3927 9.22432 19.8155 9.22432H7.02843L12.4008 4.57403C12.8004 4.16611 12.8448 3.55423 12.4008 3.14631L11.424 2.24889C11.0244 1.88176 10.314 1.88176 9.9144 2.24889L1.30091 10.2033C0.856912 10.5705 0.856912 11.1823 1.30091 11.5495L9.9144 19.5039C10.314 19.871 10.98 19.871 11.424 19.5039L12.4008 18.6065Z" fill="white"/>
</svg>
